<svg width="131" height="46" viewBox="0 0 131 46" fill="none" xmlns="http://www.w3.org/2000/svg">
<path d="M22 29.7308C22 35.6718 17.0683 40.5 11 40.5C4.93167 40.5 0 35.6718 0 29.7308C0 24.3462 3.66667 24.3462 3.66667 18.9615C3.66667 16.3769 5.04167 13.9718 7.33333 12.6795C8.06667 12.2667 8.83667 11.9974 9.625 11.8538V9.98718C9.625 9.32308 9.47833 8.94615 9.22167 8.69487C8.98333 8.44359 8.48833 8.19231 7.33333 8.19231V5.5C8.94667 5.5 10.2667 5.91282 11.165 6.79231C12.0633 7.67179 12.375 8.87436 12.375 9.98718V11.8538C13.1633 11.9974 13.9517 12.2667 14.6667 12.6795C16.9583 13.9718 18.3333 16.3769 18.3333 18.9615C18.3333 24.3462 22 24.3462 22 29.7308Z" fill="#4D5A5E"/>
<path d="M33.8203 40V13.8182H45.1214C47.0646 13.8182 48.7649 14.2017 50.2223 14.9688C51.6797 15.7358 52.8132 16.8139 53.6229 18.2031C54.4325 19.5923 54.8374 21.2159 54.8374 23.0739C54.8374 24.9489 54.4197 26.5724 53.5845 27.9446C52.7578 29.3168 51.5945 30.3736 50.0945 31.1151C48.603 31.8565 46.8601 32.2273 44.8658 32.2273H38.1158V26.7045H43.4339C44.2692 26.7045 44.9808 26.5597 45.5689 26.2699C46.1655 25.9716 46.6214 25.5497 46.9368 25.0043C47.2607 24.4588 47.4226 23.8153 47.4226 23.0739C47.4226 22.3239 47.2607 21.6847 46.9368 21.1562C46.6214 20.6193 46.1655 20.2102 45.5689 19.929C44.9808 19.6392 44.2692 19.4943 43.4339 19.4943H40.9283V40H33.8203ZM70.0675 40.4574C67.3885 40.4574 65.0798 39.9455 63.1413 38.9219C61.2138 37.8873 59.7273 36.4062 58.6818 34.4787C57.6473 32.5402 57.13 30.2206 57.13 27.5199C57.13 24.928 57.6527 22.6629 58.6982 20.7244C59.7436 18.786 61.2192 17.2777 63.125 16.1996C65.0308 15.1214 67.2796 14.5824 69.8714 14.5824C71.7663 14.5824 73.4815 14.8764 75.017 15.4645C76.5526 16.0526 77.8648 16.9074 78.9538 18.0291C80.0429 19.1399 80.8814 20.4903 81.4695 22.0803C82.0575 23.6702 82.3516 25.4616 82.3516 27.4545V29.5455H59.9396V24.5795H74.0533C74.0424 23.8608 73.8572 23.2292 73.4979 22.6847C73.1494 22.1293 72.6757 21.6991 72.0767 21.3942C71.4886 21.0784 70.8189 20.9205 70.0675 20.9205C69.3378 20.9205 68.6681 21.0784 68.0582 21.3942C67.4484 21.6991 66.9583 22.1238 66.5881 22.6683C66.2287 23.2128 66.0381 23.8499 66.0163 24.5795V29.9375C66.0163 30.7434 66.1851 31.4621 66.5227 32.0938C66.8603 32.7254 67.3449 33.2209 67.9766 33.5803C68.6082 33.9396 69.3705 34.1193 70.2635 34.1193C70.8842 34.1193 71.4505 34.0322 71.9624 33.858C72.4851 33.6837 72.9316 33.4332 73.3018 33.1065C73.6721 32.7689 73.9444 32.366 74.1186 31.8977H82.3516C82.0684 33.6402 81.3987 35.1539 80.3423 36.4389C79.286 37.7131 77.8866 38.7041 76.1442 39.4119C74.4126 40.1089 72.3871 40.4574 70.0675 40.4574ZM93.0225 40.392C91.4217 40.392 90.006 40.1307 88.7754 39.608C87.5557 39.0743 86.5974 38.2685 85.9004 37.1903C85.2034 36.1122 84.8549 34.7401 84.8549 33.0739C84.8549 31.7017 85.0891 30.531 85.5574 29.5618C86.0256 28.5817 86.679 27.7812 87.5176 27.1605C88.3561 26.5398 89.3308 26.0661 90.4416 25.7393C91.5633 25.4126 92.7721 25.2003 94.068 25.1023C95.4728 24.9934 96.6 24.8627 97.4494 24.7102C98.3097 24.5469 98.9305 24.3236 99.3116 24.0405C99.6928 23.7464 99.8833 23.3598 99.8833 22.8807V22.8153C99.8833 22.1619 99.6329 21.661 99.1319 21.3125C98.631 20.964 97.9885 20.7898 97.2044 20.7898C96.344 20.7898 95.6416 20.9803 95.0971 21.3615C94.5635 21.7318 94.2422 22.3035 94.1333 23.0767H85.835C85.944 21.5521 86.4286 20.1473 87.2889 18.8622C88.1601 17.5663 89.4288 16.5317 91.095 15.7585C92.7612 14.9744 94.8412 14.5824 97.3351 14.5824C99.1319 14.5824 100.744 14.7947 102.17 15.2195C103.597 15.6333 104.811 16.2159 105.813 16.9673C106.815 17.7079 107.577 18.5791 108.1 19.581C108.634 20.572 108.9 21.6501 108.9 22.8153V40H100.471V36.4716H100.275C99.7744 37.4081 99.1646 38.165 98.4458 38.7422C97.738 39.3194 96.9267 39.7386 96.0119 40C95.108 40.2614 94.1116 40.392 93.0225 40.392ZM95.9629 34.7074C96.649 34.7074 97.2915 34.5658 97.8904 34.2827C98.5003 33.9995 98.9958 33.5911 99.377 33.0575C99.7581 32.5239 99.9487 31.8759 99.9487 31.1136V29.0227C99.7091 29.1207 99.4532 29.2133 99.1809 29.3004C98.9196 29.3875 98.6364 29.4692 98.3315 29.5455C98.0375 29.6217 97.7217 29.6925 97.3841 29.7578C97.0574 29.8232 96.7143 29.883 96.3549 29.9375C95.658 30.0464 95.0862 30.2261 94.6397 30.4766C94.2041 30.7161 93.8774 31.0156 93.6596 31.375C93.4527 31.7235 93.3493 32.1155 93.3493 32.5511C93.3493 33.2481 93.5943 33.7817 94.0843 34.152C94.5744 34.5223 95.2006 34.7074 95.9629 34.7074ZM113.209 40V14.9091H121.964V19.679H122.226C122.683 17.9148 123.407 16.6243 124.398 15.8075C125.4 14.9908 126.571 14.5824 127.911 14.5824C128.303 14.5824 128.689 14.6151 129.07 14.6804C129.462 14.7348 129.838 14.8165 130.197 14.9254V22.6193C129.751 22.4669 129.201 22.3525 128.548 22.2763C127.894 22.2 127.333 22.1619 126.865 22.1619C125.983 22.1619 125.188 22.3634 124.48 22.7663C123.783 23.1584 123.233 23.7138 122.83 24.4325C122.427 25.1404 122.226 25.9735 122.226 26.9318V40H113.209Z" fill="#4D5A5E"/>
</svg>
