<svg width="131" height="47" viewBox="0 0 131 47" fill="none" xmlns="http://www.w3.org/2000/svg">
<path d="M22 30.6214C22 36.5624 17.0683 41.3906 11 41.3906C4.93167 41.3906 0 36.5624 0 30.6214C0 25.2368 3.66667 25.2368 3.66667 19.8522C3.66667 17.2675 5.04167 14.8624 7.33333 13.5701C8.06667 13.1573 8.83667 12.8881 9.625 12.7445V10.8778C9.625 10.2137 9.47833 9.83678 9.22167 9.5855C8.98333 9.33422 8.48833 9.08293 7.33333 9.08293V6.39062C8.94667 6.39062 10.2667 6.80345 11.165 7.68293C12.0633 8.56242 12.375 9.76498 12.375 10.8778V12.7445C13.1633 12.8881 13.9517 13.1573 14.6667 13.5701C16.9583 14.8624 18.3333 17.2675 18.3333 19.8522C18.3333 25.2368 22 25.2368 22 30.6214Z" fill="white"/>
<path d="M33.8203 40.8906V14.7088H45.1214C47.0646 14.7088 48.7649 15.0923 50.2223 15.8594C51.6797 16.6264 52.8132 17.7045 53.6229 19.0938C54.4325 20.483 54.8374 22.1065 54.8374 23.9645C54.8374 25.8395 54.4197 27.4631 53.5845 28.8352C52.7578 30.2074 51.5945 31.2642 50.0945 32.0057C48.603 32.7472 46.8601 33.1179 44.8658 33.1179H38.1158V27.5952H43.4339C44.2692 27.5952 44.9808 27.4503 45.5689 27.1605C46.1655 26.8622 46.6214 26.4403 46.9368 25.8949C47.2607 25.3494 47.4226 24.706 47.4226 23.9645C47.4226 23.2145 47.2607 22.5753 46.9368 22.0469C46.6214 21.5099 46.1655 21.1009 45.5689 20.8196C44.9808 20.5298 44.2692 20.3849 43.4339 20.3849H40.9283V40.8906H33.8203ZM70.0675 41.348C67.3885 41.348 65.0798 40.8362 63.1413 39.8125C61.2138 38.7779 59.7273 37.2969 58.6818 35.3693C57.6473 33.4309 57.13 31.1113 57.13 28.4105C57.13 25.8187 57.6527 23.5535 58.6982 21.6151C59.7436 19.6766 61.2192 18.1683 63.125 17.0902C65.0308 16.0121 67.2796 15.473 69.8714 15.473C71.7663 15.473 73.4815 15.767 75.017 16.3551C76.5526 16.9432 77.8648 17.7981 78.9538 18.9197C80.0429 20.0305 80.8814 21.3809 81.4695 22.9709C82.0575 24.5608 82.3516 26.3523 82.3516 28.3452V30.4361H59.9396V25.4702H74.0533C74.0424 24.7514 73.8572 24.1198 73.4979 23.5753C73.1494 23.0199 72.6757 22.5897 72.0767 22.2848C71.4886 21.969 70.8189 21.8111 70.0675 21.8111C69.3378 21.8111 68.6681 21.969 68.0582 22.2848C67.4484 22.5897 66.9583 23.0144 66.5881 23.5589C66.2287 24.1035 66.0381 24.7405 66.0163 25.4702V30.8281C66.0163 31.634 66.1851 32.3527 66.5227 32.9844C66.8603 33.616 67.3449 34.1115 67.9766 34.4709C68.6082 34.8303 69.3705 35.0099 70.2635 35.0099C70.8842 35.0099 71.4505 34.9228 71.9624 34.7486C72.4851 34.5743 72.9316 34.3239 73.3018 33.9972C73.6721 33.6596 73.9444 33.2566 74.1186 32.7884H82.3516C82.0684 34.5308 81.3987 36.0445 80.3423 37.3295C79.286 38.6037 77.8866 39.5947 76.1442 40.3026C74.4126 40.9995 72.3871 41.348 70.0675 41.348ZM93.0225 41.2827C91.4217 41.2827 90.006 41.0213 88.7754 40.4986C87.5557 39.965 86.5974 39.1591 85.9004 38.081C85.2034 37.0028 84.8549 35.6307 84.8549 33.9645C84.8549 32.5923 85.0891 31.4216 85.5574 30.4524C86.0256 29.4723 86.679 28.6719 87.5176 28.0511C88.3561 27.4304 89.3308 26.9567 90.4416 26.63C91.5633 26.3033 92.7721 26.0909 94.068 25.9929C95.4728 25.884 96.6 25.7533 97.4494 25.6009C98.3097 25.4375 98.9305 25.2143 99.3116 24.9311C99.6928 24.6371 99.8833 24.2505 99.8833 23.7713V23.706C99.8833 23.0526 99.6329 22.5516 99.1319 22.2031C98.631 21.8546 97.9885 21.6804 97.2044 21.6804C96.344 21.6804 95.6416 21.871 95.0971 22.2521C94.5635 22.6224 94.2422 23.1941 94.1333 23.9673H85.835C85.944 22.4427 86.4286 21.0379 87.2889 19.7528C88.1601 18.4569 89.4288 17.4223 91.095 16.6491C92.7612 15.8651 94.8412 15.473 97.3351 15.473C99.1319 15.473 100.744 15.6854 102.17 16.1101C103.597 16.5239 104.811 17.1065 105.813 17.858C106.815 18.5985 107.577 19.4697 108.1 20.4716C108.634 21.4626 108.9 22.5407 108.9 23.706V40.8906H100.471V37.3622H100.275C99.7744 38.2988 99.1646 39.0556 98.4458 39.6328C97.738 40.21 96.9267 40.6293 96.0119 40.8906C95.108 41.152 94.1116 41.2827 93.0225 41.2827ZM95.9629 35.598C96.649 35.598 97.2915 35.4564 97.8904 35.1733C98.5003 34.8902 98.9958 34.4818 99.377 33.9482C99.7581 33.4145 99.9487 32.7666 99.9487 32.0043V29.9134C99.7091 30.0114 99.4532 30.1039 99.1809 30.1911C98.9196 30.2782 98.6364 30.3598 98.3315 30.4361C98.0375 30.5123 97.7217 30.5831 97.3841 30.6484C97.0574 30.7138 96.7143 30.7737 96.3549 30.8281C95.658 30.937 95.0862 31.1167 94.6397 31.3672C94.2041 31.6068 93.8774 31.9062 93.6596 32.2656C93.4527 32.6141 93.3493 33.0062 93.3493 33.4418C93.3493 34.1387 93.5943 34.6723 94.0843 35.0426C94.5744 35.4129 95.2006 35.598 95.9629 35.598ZM113.209 40.8906V15.7997H121.964V20.5696H122.226C122.683 18.8054 123.407 17.5149 124.398 16.6982C125.4 15.8814 126.571 15.473 127.911 15.473C128.303 15.473 128.689 15.5057 129.07 15.571C129.462 15.6255 129.838 15.7071 130.197 15.8161V23.5099C129.751 23.3575 129.201 23.2431 128.548 23.1669C127.894 23.0907 127.333 23.0526 126.865 23.0526C125.983 23.0526 125.188 23.254 124.48 23.657C123.783 24.049 123.233 24.6044 122.83 25.3232C122.427 26.031 122.226 26.8641 122.226 27.8224V40.8906H113.209Z" fill="white"/>
</svg>
